<?xml version="1.0" encoding="UTF-8"?>
<svg width="1200pt" height="1200pt" version="1.1" viewBox="0 0 1200 1200" xmlns="http://www.w3.org/2000/svg">
 <path d="m888.52 337.97-350.26 350.29c-7.3594 7.3125-19.219 7.3125-26.531 0-7.3125-7.3594-7.3125-19.219 0-26.531l350.29-350.26v-89.438c0-9.9844 3.9375-19.5 10.969-26.531 20.344-20.344 64.406-64.406 93.234-93.281 4.5938-4.5469 11.438-5.9062 17.438-3.4688 5.9531 2.4844 9.8438 8.2969 9.8438 14.766v55.406c0 9.9844 3.9375 19.5 10.969 26.531s16.594 10.969 26.531 10.969h55.406c6.4688 0 12.281 3.8906 14.766 9.8438 2.4844 6 1.0781 12.844-3.4688 17.438-28.828 28.828-72.891 72.891-93.281 93.234-7.0312 7.0312-16.547 10.969-26.531 10.969h-89.438zm15.469 37.547c63.094 79.406 100.78 179.76 100.78 288.94 0 256.6-208.31 464.9-464.9 464.9-256.6 0-464.9-208.31-464.9-464.9 0-256.6 208.31-464.9 464.9-464.9 106.92 0 205.45 36.188 284.06 96.938l-128.86 128.81c-44.672-29.062-97.969-45.984-155.21-45.984-157.36 0-285.1 127.78-285.1 285.1 0 157.36 127.78 285.1 285.1 285.1 157.36 0 285.1-127.78 285.1-285.1 0-59.484-18.281-114.7-49.453-160.45l128.48-128.48zm-235.36 235.36c6.8906 16.5 10.688 34.594 10.688 53.578 0 76.969-62.484 139.45-139.45 139.45s-139.45-62.484-139.45-139.45 62.531-139.45 139.45-139.45c16.594 0 32.531 2.9062 47.344 8.25l-102 101.95-7.1719 8.8125-5.1562 9.8438-3.0938 10.453-1.0312 10.688 1.0312 10.688 3.0938 10.453 5.1562 9.8438 7.1719 8.8125 8.8125 7.1719 9.8438 5.1562 10.453 3.0938 10.688 1.0312 10.688-1.0312 10.453-3.0938 9.8438-5.1562 8.8125-7.1719 103.88-103.92z" fill="#ff001b" fill-rule="evenodd"/>
</svg>
